PathFileType	3	(X/Y/Z)	F:\ViconData\AntennenMessung\Messung1\Session1\ID14.trc
DataRate	CameraRate	NumFrames	NumMarkers	Units	OrigDataRate	OrigDataStartFrame	OrigNumFrames
120.0	120.0	6	70	mm	120.0	243	1940	
Frame#	Time	Ashort			Along			Atop			A4			Bshort			Blong			Btop			B4			Cshort			Clong			Ctop			C4			Dshort			Dlong			Dtop			D4			Eshort			Elong			Etop			E4			Fshort			Flong			Ftop			F4			Gshort			Glong			Gtop			G4			Hshort			Hlong			Htop			H4			I1			I2			I3			I4			I5			WandAshort			WandAlong			WandAtop			WandA4			WandA15			WandBshort			WandB4			WandB5			WandBtop			WandBlong			WandCshort			WandClong			WandCtop			WandC4			WandC5			Acenter			Aantenna			Bcenter			Bantenna			Ccenter			Cantenna			Dcenter			Dantenna			Ecenter			Eantenna			Fcenter			Fantenna			Gcenter			Gantenna			Hcenter			Hantenna			Icenter			Iantenna			
		X1	Y1	Z1	X2	Y2	Z2	X3	Y3	Z3	X4	Y4	Z4	X5	Y5	Z5	X6	Y6	Z6	X7	Y7	Z7	X8	Y8	Z8	X9	Y9	Z9	X10	Y10	Z10	X11	Y11	Z11	X12	Y12	Z12	X13	Y13	Z13	X14	Y14	Z14	X15	Y15	Z15	X16	Y16	Z16	X17	Y17	Z17	X18	Y18	Z18	X19	Y19	Z19	X20	Y20	Z20	X21	Y21	Z21	X22	Y22	Z22	X23	Y23	Z23	X24	Y24	Z24	X25	Y25	Z25	X26	Y26	Z26	X27	Y27	Z27	X28	Y28	Z28	X29	Y29	Z29	X30	Y30	Z30	X31	Y31	Z31	X32	Y32	Z32	X33	Y33	Z33	X34	Y34	Z34	X35	Y35	Z35	X36	Y36	Z36	X37	Y37	Z37	X38	Y38	Z38	X39	Y39	Z39	X40	Y40	Z40	X41	Y41	Z41	X42	Y42	Z42	X43	Y43	Z43	X44	Y44	Z44	X45	Y45	Z45	X46	Y46	Z46	X47	Y47	Z47	X48	Y48	Z48	X49	Y49	Z49	X50	Y50	Z50	X51	Y51	Z51	X52	Y52	Z52	X53	Y53	Z53	X54	Y54	Z54	X55	Y55	Z55	X56	Y56	Z56	X57	Y57	Z57	X58	Y58	Z58	X59	Y59	Z59	X60	Y60	Z60	X61	Y61	Z61	X62	Y62	Z62	X63	Y63	Z63	X64	Y64	Z64	X65	Y65	Z65	X66	Y66	Z66	X67	Y67	Z67	X68	Y68	Z68	X69	Y69	Z69	X70	Y70	Z70	
243	2.0166667	-1038.2164	214.58743	-1644.0699	-1109.3717	204.2094	-1599.4152	-1063.5591	172.99161	-1625.8423	-1054.1547	262.27023	-1634.8763	-1352.7726	235.10449	1003.5148	-1281.2938	227.44206	1052.2295	-1322.7435	193.90038	1020.8739	-1284.411	287.99619	1052.6799	813.91644	187.76932	1209.411	892.26727	178.50648	1179.0143	844.52533	145.50385	1198.2661	860.96204	292.48495	1168.5363	1115.8354	209.75996	-1401.6658	1056.3466	194.12497	-1460.2167	1095.3358	162.67546	-1423.7917	1069.7338	238.97525	-1425.8981	-1204.5939	1686.0621	-1563.1359	-1129.1254	1688.306	-1606.0034	-1173.1486	1724.4529	-1581.9341	-1134.014	1581.0552	-1603.8462	-1239.3931	1698.8065	1119.374	-1309.2906	1698.7306	1071.9139	-1270.3899	1736.2906	1096.894	-1245.5878	1592.7817	1110.6681	988.8504	1664.2004	1162.17	957.24884	1700.5515	1183.757	922.4906	1662.1025	1214.8857	939.85236	1659.391	1159.8024	999.14252	1668.4697	-1579.3912	1058.6764	1670.0513	-1518.7188	1025.0629	1708.0822	-1551.1202	1059.3247	1672.198	-1585.4794	-238.09355	1170.423	-194.63838	-153.36311	1173.0432	-193.86699	-201.05573	1208.8922	-193.91051	-202.28564	1171.261	-162.67847	-200.5961	1172.8514	-241.63719																																														-1068.4955	210.17119	-1625.0677	-1073.6276	248.82365	-1624.2623	-1321.4191	231.74342	1024.8829	-1320.0626	270.50293	1028.9891	848.20563	183.71555	1196.1084	851.93866	222.47473	1193.9196	1089.0164	202.71132	-1428.0619	1082.9691	241.02234	-1432.1481	-1171.905	1687.0339	-1581.7035	-1170.6099	1648.0562	-1581.4637	-1271.0282	1698.7721	1097.8939	-1271.6913	1659.7915	1098.9329	953.02106	1705.4146	1186.6448	972.85052	1733.5455	1168.3025	1026.4968	1669.1964	-1551.5137	1027.9337	1630.2249	-1551.9078	-199.89914	1171.6041	-194.29065	-198.69009	1132.6249	-194.68803
244	2.025	-1038.2144	214.58194	-1644.0724	-1109.3894	204.19781	-1599.3955	-1063.5594	173.0071	-1625.8331	-1054.1548	262.26385	-1634.8661	-1352.7354	235.14851	1003.511	-1281.3495	227.36511	1052.1846	-1322.7146	193.99133	1020.8593	-1284.3748	287.97034	1052.689	813.97437	187.7005	1209.4465	892.26746	178.58099	1178.9526	844.49188	145.47981	1198.2588	860.93732	292.40909	1168.265	1115.8571	209.77998	-1401.6575	1056.3873	194.10167	-1460.1041	1095.3152	162.63618	-1423.7484	1069.7211	238.97578	-1425.9023	-1204.584	1686.0663	-1563.1166	-1129.13	1688.3546	-1606.2391	-1173.1539	1724.4744	-1581.9802	-1134.0005	1581.0618	-1603.86	-1239.5466	1699.0265	1119.4431	-1309.3894	1698.8898	1071.968	-1270.2734	1736.1494	1096.8453	-1245.6172	1592.8519	1110.7103	988.8363	1664.1965	1162.1395	957.34375	1700.5438	1183.8375	921.7959	1662.3276	1214.7637	939.87061	1659.4249	1159.7937	999.1582	1668.4637	-1579.382	1058.8495	1670.0416	-1518.7228	1025.0677	1708.0861	-1551.1318	1059.337	1672.1625	-1585.376	-238.09477	1170.4148	-194.64348	-153.38614	1173.0332	-193.86098	-201.06119	1208.9044	-193.90938	-202.30969	1171.3009	-162.7328	-200.59494	1172.8519	-241.64064																																														-1068.4973	210.16377	-1625.0636	-1073.6339	248.81573	-1624.2631	-1321.3585	231.7274	1024.9049	-1319.9659	270.48047	1029.0597	848.12354	183.72282	1196.146	851.80493	222.48958	1194.0043	1088.9917	202.69734	-1428.0604	1082.9449	241.00447	-1432.1838	-1171.9103	1687.057	-1581.7897	-1170.6149	1648.0791	-1581.5914	-1271.0192	1698.9647	1098.0497	-1271.801	1659.993	1099.3118	952.80188	1705.7858	1186.9668	972.8927	1733.9452	1168.9554	1026.5337	1669.1873	-1551.5623	1028.0024	1630.2174	-1551.9938	-199.9044	1171.5953	-194.29068	-198.69583	1132.6161	-194.68909
245	2.0333333	-1038.214	214.60147	-1644.0615	-1109.3842	204.15779	-1599.3982	-1063.5276	172.98796	-1625.8353	-1054.1428	262.2244	-1634.9131	-1352.6429	235.27582	1003.4212	-1281.3337	227.33299	1052.2074	-1322.6919	193.9688	1020.8454	-1284.5114	287.87997	1052.7598	813.9892	187.67494	1209.4547	892.28284	178.54909	1178.9707	844.56921	145.44139	1198.2828	860.9502	292.20493	1167.2374	1115.9135	210.06816	-1401.8195	1056.3561	194.1779	-1460.2343	1095.3572	162.65665	-1423.8047	1069.7286	238.94897	-1425.8993	-1204.5752	1686.0684	-1563.1451	-1129.1377	1688.349	-1606.2397	-1173.1532	1724.4879	-1581.9709	-1134.0083	1581.0743	-1603.8662	-1239.5873	1699.0901	1119.4576	-1309.4027	1698.8926	1071.9727	-1270.2858	1736.1415	1096.8525	-1245.5587	1592.7223	1110.6619	988.87152	1664.2407	1162.1593	957.27612	1700.5582	1183.7992	921.89514	1662.2844	1214.8098	939.87292	1659.3667	1159.8086	999.15375	1668.4574	-1579.3813	1058.9202	1670.1627	-1518.6752	1025.0698	1708.0813	-1551.1248	1059.34	1672.1654	-1585.3712	-238.09534	1170.42	-194.64151	-153.37305	1173.0487	-193.88029	-201.06685	1208.899	-193.91866	-202.30576	1171.2953	-162.71687	-200.59599	1172.8541	-241.65495																																														-1068.4946	210.15799	-1625.0586	-1073.6592	248.80609	-1624.2511	-1321.2522	231.77934	1024.897	-1319.7767	270.5296	1029.0493	848.19189	183.68828	1196.1376	851.86389	222.4541	1193.9631	1088.9758	202.88103	-1428.2405	1082.9009	241.17287	-1432.463	-1171.9229	1687.0554	-1581.7982	-1170.6417	1648.0769	-1581.6183	-1271.0161	1699.0011	1098.0811	-1271.7826	1660.03	1099.3702	952.7511	1705.7594	1186.8982	972.74866	1733.9352	1168.8091	1026.5817	1669.2399	-1551.522	1028.0984	1630.2715	-1551.9207	-199.90633	1171.6049	-194.29839	-198.69336	1132.6259	-194.69527
246	2.0416667	-1038.2162	214.57727	-1644.0496	-1109.4025	204.34932	-1599.4441	-1063.6322	173.22989	-1625.8759	-1054.1179	262.26843	-1634.8654	-1352.7327	235.07512	1003.5181	-1281.2979	227.4984	1052.1844	-1322.7825	193.93684	1020.862	-1284.3273	287.99811	1052.6063	813.90796	187.77061	1209.5316	892.2475	178.4583	1178.9576	844.54462	145.45572	1198.2979	861.00702	292.33191	1168.345	1115.8369	209.77954	-1401.6653	1056.3793	194.18307	-1460.2273	1095.53	162.88109	-1423.6873	1069.7184	238.99873	-1425.8958	-1204.6027	1686.0728	-1563.1212	-1129.1428	1688.3602	-1606.2347	-1173.1431	1724.463	-1581.9504	-1134.0156	1581.0641	-1603.8527	-1239.551	1699.0227	1119.4412	-1309.4399	1698.9327	1071.9871	-1270.2563	1736.0935	1096.833	-1245.5956	1592.7894	1110.6891	988.81488	1664.1718	1162.1716	957.31921	1700.548	1183.7886	922.02728	1662.291	1214.7917	939.85284	1659.4148	1159.8113	999.1535	1668.4426	-1579.3624	1058.6577	1670.0309	-1518.7179	1025.064	1708.0867	-1551.1184	1059.3224	1672.1973	-1585.4775	-238.09903	1170.4197	-194.64334	-153.38443	1173.0333	-193.87785	-201.06975	1208.8948	-193.91347	-202.29034	1171.281	-162.70894	-200.58702	1172.847	-241.64949																																														-1068.4612	210.23169	-1625.0979	-1073.5071	248.89536	-1624.2852	-1321.4666	231.75888	1024.8186	-1320.1177	270.52399	1028.874	848.24377	183.68907	1196.1311	851.99365	222.44618	1193.9347	1089.2054	202.79379	-1427.8955	1083.1344	241.10599	-1431.9352	-1171.92	1687.0634	-1581.7942	-1170.6455	1648.0845	-1581.6315	-1271.0414	1698.9822	1098.0593	-1271.8657	1660.0121	1099.3472	952.9035	1705.6477	1186.8191	972.92969	1733.7686	1168.6761	1026.4918	1669.1721	-1551.5001	1027.9216	1630.2003	-1551.8824	-199.91556	1171.5978	-194.29829	-198.70932	1132.6184	-194.7005
247	2.05	-1038.2373	214.61989	-1644.1	-1109.3844	204.22362	-1599.4191	-1063.5404	173.05148	-1625.8787	-1054.1299	262.28351	-1634.8582	-1352.6997	235.17134	1003.5092	-1281.364	227.38042	1052.2032	-1322.7062	193.95746	1020.8439	-1284.3815	287.9725	1052.6818	813.96545	187.71324	1209.4103	892.29462	178.51068	1178.9888	844.59784	145.44673	1198.3524	861.06421	292.04904	1167.7274	1115.8988	210.05186	-1401.8147	1056.3826	194.12245	-1460.1886	1095.5132	162.82899	-1423.7117	1069.7446	238.98503	-1425.8923	-1204.5984	1686.0854	-1563.127	-1129.1305	1688.3617	-1606.2383	-1173.1583	1724.4778	-1581.9702	-1134.0227	1581.048	-1603.8335	-1239.5546	1699.0269	1119.4434	-1309.3851	1698.8604	1071.9557	-1270.407	1736.2629	1096.8917	-1245.5562	1592.7145	1110.6627	988.7937	1664.1661	1162.1531	957.27649	1700.5253	1183.8105	921.9165	1662.2722	1214.8815	939.85419	1659.401	1159.7878	999.15149	1668.4426	-1579.3677	1058.8501	1670.0294	-1518.7285	1025.0681	1708.0878	-1551.1238	1059.3354	1672.167	-1585.3737	-238.09023	1170.4158	-194.6407	-153.37238	1173.0331	-193.87785	-201.05795	1208.8898	-193.91647	-202.31059	1171.2897	-162.74512	-200.5806	1172.8439	-241.65152																																														-1068.4832	210.20026	-1625.1053	-1073.6256	248.85135	-1624.3007	-1321.3524	231.74774	1024.9069	-1319.9641	270.49966	1029.0734	848.21863	183.68896	1196.1071	851.88849	222.44916	1193.8312	1089.0986	202.87883	-1428.1005	1082.9666	241.16454	-1432.2959	-1171.9272	1687.0707	-1581.7903	-1170.6445	1648.0923	-1581.6029	-1271.0764	1698.9517	1098.0071	-1271.776	1659.9753	1099.1722	952.78809	1705.703	1186.8948	972.79218	1733.845	1168.7601	1026.5366	1669.1704	-1551.551	1028.0071	1630.2006	-1551.9789	-199.9023	1171.5955	-194.29683	-198.69441	1132.6163	-194.69438
248	2.0583333	-1038.2281	214.60091	-1644.0872	-1109.3755	204.11804	-1599.3715	-1063.6235	173.21281	-1625.8722	-1054.1201	262.23587	-1634.8929	-1352.7003	235.13359	1003.5275	-1281.3099	227.41412	1052.1824	-1322.7478	193.90263	1020.8799	-1284.4164	287.89545	1052.6467	814.01617	187.67891	1209.4717	892.17291	178.49646	1179.0433	844.56537	145.31094	1198.3783	861.08551	292.23376	1167.7051	1115.9043	210.06325	-1401.8101	1056.3561	194.15707	-1460.2247	1095.3282	162.586	-1423.7913	1069.7466	238.96307	-1425.8695	-1204.5992	1686.08	-1563.1168	-1129.13	1688.3674	-1606.2488	-1173.1582	1724.4769	-1581.9519	-1134.0189	1581.0547	-1603.8387	-1239.5824	1699.067	1119.4529	-1309.3699	1698.8571	1071.9535	-1270.4033	1736.245	1096.8837	-1245.5853	1592.7701	1110.6791	988.81079	1664.1896	1162.1493	957.32007	1700.4775	1183.7869	921.9494	1662.2781	1214.8304	939.8172	1659.3975	1159.7827	999.14679	1668.4464	-1579.3643	1058.9121	1670.1451	-1518.6805	1025.0675	1708.0795	-1551.1271	1059.33	1672.1631	-1585.379	-238.09212	1170.4089	-194.64357	-153.3806	1173.0402	-193.87695	-201.05812	1208.9004	-193.91313	-202.30144	1171.3015	-162.72186	-200.586	1172.84	-241.62607																																														-1068.5388	210.1349	-1625.037	-1073.684	248.78412	-1624.163	-1321.3782	231.7467	1024.8744	-1319.9755	270.50613	1028.9657	848.20752	183.66183	1196.16	851.88861	222.42294	1193.9181	1088.9473	202.86266	-1428.2539	1082.8811	241.15366	-1432.4965	-1171.9304	1687.0702	-1581.7875	-1170.6511	1648.0916	-1581.6163	-1271.0669	1698.9722	1098.0236	-1271.7611	1659.9966	1099.2155	952.79083	1705.6968	1186.8989	972.79187	1733.8542	1168.7852	1026.5702	1669.2258	-1551.5194	1028.0775	1630.2568	-1551.913	-199.89595	1171.5953	-194.2979	-198.68164	1132.6163	-194.69994
